<?xml version="1.0" encoding="utf-8"?>
<!-- Generator: Adobe Illustrator 15.0.2, SVG Export Plug-In . SVG Version: 6.00 Build 0)  -->
<!DOCTYPE svg PUBLIC "-//W3C//DTD SVG 1.1//EN" "http://www.w3.org/Graphics/SVG/1.1/DTD/svg11.dtd">
<svg version="1.1" id="Layer_1" xmlns="http://www.w3.org/2000/svg" xmlns:xlink="http://www.w3.org/1999/xlink" x="0px" y="0px"
	 width="512px" height="585.143px" viewBox="0 0 512 585.143" enable-background="new 0 0 512 585.143" xml:space="preserve">
<g>
	<path d="M36.571,585.143h438.857c20.179,0,36.571-16.393,36.571-36.571v-512C512,16.384,495.607,0,475.429,0H36.571
		C16.384,0,0,16.384,0,36.571v512C0,568.75,16.384,585.143,36.571,585.143z M36.571,36.571h438.857v512H36.571V36.571z M384,109.714
		H237.714c-10.089,0-18.285,8.197-18.285,18.286s8.196,18.286,18.285,18.286H384c10.089,0,18.286-8.197,18.286-18.286
		S394.089,109.714,384,109.714z M384,219.429H128c-10.089,0-18.286,8.196-18.286,18.285c0,10.09,8.197,18.286,18.286,18.286h256
		c10.089,0,18.286-8.196,18.286-18.286C402.286,227.625,394.089,219.429,384,219.429z M384,329.143H128
		c-10.089,0-18.286,8.196-18.286,18.286c0,10.089,8.197,18.285,18.286,18.285h256c10.089,0,18.286-8.196,18.286-18.285
		C402.286,337.339,394.089,329.143,384,329.143z M384,438.857H128c-10.089,0-18.286,8.196-18.286,18.285
		c0,10.09,8.197,18.286,18.286,18.286h256c10.089,0,18.286-8.196,18.286-18.286C402.286,447.054,394.089,438.857,384,438.857z"/>
</g>
</svg>
